<svg width="26" height="24" viewBox="0 0 26 24" fill="none" xmlns="http://www.w3.org/2000/svg">
<path fill-rule="evenodd" clip-rule="evenodd" d="M10.7977 21.9257C10.7977 22.5191 10.3167 23.0001 9.72332 23.0001C9.12996 23.0001 8.64894 22.5191 8.64894 21.9257C8.64894 21.3323 9.12996 20.8513 9.72332 20.8513C10.3167 20.8513 10.7977 21.3323 10.7977 21.9257Z" stroke="#28A19C" stroke-width="1.25" stroke-linecap="round" stroke-linejoin="round"/>
<path fill-rule="evenodd" clip-rule="evenodd" d="M22.8513 21.9257C22.8513 22.5191 22.3725 23.0001 21.7819 23.0001C21.1913 23.0001 20.7125 22.5191 20.7125 21.9257C20.7125 21.3323 21.1913 20.8513 21.7819 20.8513C22.3725 20.8513 22.8513 21.3323 22.8513 21.9257Z" stroke="#28A19C" stroke-width="1.25" stroke-linecap="round" stroke-linejoin="round"/>
<path d="M1 1H5.36364L8.28728 14.8936C8.49317 15.8795 9.41242 16.5834 10.4691 16.5641H21.0727C22.1294 16.5834 23.0487 15.8795 23.2546 14.8936L25 6.18803H6.45456" stroke="#28A19C" stroke-width="1.25" stroke-linecap="round" stroke-linejoin="round"/>
</svg>
