<svg width="64" height="88" viewBox="0 0 64 88" fill="none" xmlns="http://www.w3.org/2000/svg">
<path fill-rule="evenodd" clip-rule="evenodd" d="M42.2749 31.8235C42.2749 26.3577 37.8397 21.9285 32.3761 21.9285C26.9086 21.9285 22.4773 26.3577 22.4773 31.8235C22.4773 35.5349 24.5223 38.7628 27.5448 40.4579L27.7504 33.8916C27.7504 31.2051 29.93 29.0257 32.6195 29.0257H32.8956C35.0138 29.0257 36.7307 30.742 36.7307 32.8602V40.7013C40.0079 39.0913 42.2749 35.7237 42.2749 31.8235Z" fill="#FFC607" fill-opacity="0.54"/>
<path fill-rule="evenodd" clip-rule="evenodd" d="M36.7898 32.4667C36.7898 30.3488 35.0732 28.6327 32.9555 28.6327H32.6793C29.9905 28.6327 27.8113 30.8119 27.8113 33.4981L27.6057 40.0636L27.1498 54.5287C27.0461 54.9748 26.9872 65.0321 26.9872 65.0321C26.137 64.1653 25.1904 63.1736 24.3402 62.2247C22.355 60.0104 18.7073 58.5182 16.2828 58.242C15.0056 58.0956 14.0305 58.2704 13.3814 58.7589C13.1736 58.9174 12.9704 59.0945 12.7794 59.2854C11.5282 60.5178 10.5838 62.5082 11.4574 63.967C11.835 64.6042 12.4839 65.0271 13.1736 65.471C14.0873 66.0634 15.6264 66.7054 16.7835 68.1809C18.721 70.6597 23.2075 76.2009 25.9648 79.1587C26.5385 79.5155 27.7521 80.7265 28.3257 81.0334C30.0658 82.1454 31.4872 83.1911 31.9802 83.7578C32.3654 84.1989 34.6433 85.3653 34.6433 85.3653C36.4851 86.5316 39.8374 87.6221 43.7094 87.6221C47.5738 87.6221 51.0849 87.8538 53.6796 85.5712H53.8185L53.887 85.3987C56.5268 82.981 58.1677 79.6309 58.1677 75.927V70.9976V58.2182C58.1677 57.3499 57.9765 54.4409 55.5301 53.5674C54.3546 53.1496 53.243 53.3078 52.2957 53.7164L52.0742 53.7259L52.006 53.7304C51.5805 52.1323 50.5182 51.1006 48.9461 50.8266C47.0479 50.4982 45.7324 51.0651 44.9417 51.639C44.1559 49.9486 42.5785 49.0678 40.4443 49.2471C38.8438 49.3822 37.6535 50.168 36.7898 51.2042V40.307V32.4667Z" fill="#28A19C"/>
<path fill-rule="evenodd" clip-rule="evenodd" d="M54.506 48.4273L56.4744 50.6137C56.8531 51.0385 57.539 51.0129 57.8726 50.5523C61.6674 45.2966 63.7589 38.971 63.7589 32.317C63.7589 15.045 49.6804 0.99608 32.3769 0.99608C31.1896 0.99608 29.9855 1.06234 28.7948 1.19477C14.3543 2.80036 2.74126 14.4339 1.18229 28.8578C0.332741 36.7064 2.41438 44.3638 6.87865 50.5523C7.20967 51.0151 7.89591 51.0385 8.27968 50.616L10.2453 48.4319C10.5248 48.1227 10.5456 47.6644 10.309 47.322C7.1581 42.7273 5.50427 37.2399 5.66966 31.5333C6.06967 17.6827 17.2407 6.32801 31.1016 5.68327C46.4275 4.93026 59.0938 17.1917 59.0938 32.317C59.0938 37.7291 57.44 42.9331 54.4377 47.3175C54.2034 47.6622 54.2246 48.1182 54.506 48.4273Z" fill="#28A19C"/>
<path fill-rule="evenodd" clip-rule="evenodd" d="M45.7014 38.6263L47.7883 40.9401C48.2146 41.4169 48.9899 41.3083 49.2761 40.7395C50.5935 38.1446 51.2875 35.2897 51.2875 32.3149C51.2875 23.4422 44.9672 15.6858 36.2535 13.8677C33.7122 13.3315 31.0417 13.3315 28.4929 13.8677C19.7844 15.6858 13.4642 23.4422 13.4642 32.3149C13.4642 35.2924 14.1581 38.1446 15.4733 40.7395C15.7649 41.3083 16.5348 41.4169 16.9634 40.9401L19.0481 38.6263C19.2826 38.3663 19.337 37.9982 19.2044 37.6774C18.5032 35.9796 18.1338 34.1592 18.1338 32.3149C18.1338 26.3816 21.8976 21.0221 27.497 18.9796C30.625 17.8414 34.1261 17.8414 37.2513 18.9796C42.8514 21.0221 46.6132 26.3816 46.6132 32.3149C46.6132 34.1592 46.2439 35.9796 45.5472 37.6774C45.4147 38.0005 45.4683 38.3686 45.7014 38.6263Z" fill="#FFBA00"/>
</svg>
