<svg width="62" height="85" viewBox="0 0 62 85" fill="none" xmlns="http://www.w3.org/2000/svg">
<path fill-rule="evenodd" clip-rule="evenodd" d="M56.3423 79.3979L46.2806 74.9804L41.5062 84.8782L24.3066 38.3104L39.1427 32.8302L56.3423 79.3979Z" fill="#28A19C"/>
<path fill-rule="evenodd" clip-rule="evenodd" d="M4.78221 79.3979L14.8439 74.9804L19.6183 84.8782L36.8179 38.3104L21.9817 32.8302L4.78221 79.3979Z" fill="#28A19C"/>
<path fill-rule="evenodd" clip-rule="evenodd" d="M33.9478 2.18226V2.18226C36.7553 -0.0778838 41.0356 1.02887 42.2958 4.34099V4.34099C43.1761 6.65444 45.6445 8.02969 48.1608 7.60856V7.60856C51.7633 7.00574 54.8967 10.0297 54.272 13.506V13.506C53.8358 15.9344 55.2609 18.3165 57.6583 19.1658V19.1658C61.0902 20.3819 62.2373 24.5127 59.895 27.222V27.222C58.2591 29.1143 58.2591 31.865 59.895 33.7573V33.7573C62.2373 36.4666 61.0902 40.5971 57.6583 41.8134V41.8134C55.2609 42.6628 53.8358 45.0448 54.272 47.4731V47.4731C54.8967 50.9496 51.7633 53.9733 48.1608 53.3705V53.3705C45.6446 52.9496 43.1761 54.3248 42.2958 56.6383V56.6383C41.0356 59.9504 36.7553 61.0572 33.9478 58.7968V58.7968C31.9867 57.2181 29.1365 57.2181 27.1756 58.7968V58.7968C24.3681 61.0572 20.0876 59.9504 18.8274 56.6383V56.6383C17.947 54.3248 15.4786 52.9496 12.9624 53.3705V53.3705C9.3601 53.9733 6.2265 50.9496 6.85117 47.4731V47.4731C7.28756 45.0448 5.86251 42.6628 3.46514 41.8134H3.46493C0.0330215 40.5971 -1.11388 36.4666 1.2282 33.7573V33.7573C2.86432 31.865 2.86432 29.1143 1.2282 27.222V27.222C-1.11388 24.5127 0.0330215 20.3819 3.46493 19.1658H3.46514C5.86252 18.3165 7.28757 15.9344 6.85117 13.506V13.506C6.22651 10.0297 9.3601 7.00574 12.9624 7.60856V7.60856C15.4786 8.02969 17.947 6.65444 18.8274 4.34099V4.34099C20.0876 1.02887 24.3681 -0.0778838 27.1756 2.18226V2.18226C29.1365 3.76115 31.9867 3.76115 33.9478 2.18226Z" fill="#FFBA00"/>
<path fill-rule="evenodd" clip-rule="evenodd" d="M10.1479 31.106C10.1479 19.5015 19.553 10.0942 31.1547 10.0942C42.7564 10.0942 52.1615 19.5015 52.1615 31.106C52.1615 42.7105 42.7564 52.1178 31.1547 52.1178C19.553 52.1178 10.1479 42.7105 10.1479 31.106Z" fill="white"/>
</svg>
