<svg width="88" height="84" viewBox="0 0 88 84" fill="none" xmlns="http://www.w3.org/2000/svg">
<path fill-rule="evenodd" clip-rule="evenodd" d="M7.17273 66.7486V24.5708C2.79206 24.549 0.00211992 24.864 0.00211992 24.864V74.6291C0.00211992 74.6291 24.5535 71.8318 42.709 83.4322C27.6089 68.7802 7.17273 66.7485 7.17273 66.7485V66.7486Z" fill="#FFBA00"/>
<path fill-rule="evenodd" clip-rule="evenodd" d="M25.81 60.9996V18.6396C17.7524 15.2638 10.822 14.1335 10.822 14.1335V63.9021C10.822 63.9021 34.1092 67.6904 44.9547 82.2021C41.7663 72.6989 25.81 60.9996 25.81 60.9996Z" fill="#28A19C"/>
<path fill-rule="evenodd" clip-rule="evenodd" d="M29.4432 9.03816V58.7056C29.4432 58.7056 43.5421 68.8102 48.0857 82.1752V37.8265C48.0857 15.6174 29.4432 9.03816 29.4432 9.03816Z" fill="#28A19C" fill-opacity="0.8"/>
<path fill-rule="evenodd" clip-rule="evenodd" d="M82.3095 62.602V24.1395C86.6906 24.1177 87.4423 24.5437 87.4423 24.5437V71.2439C87.4423 71.2439 65.0107 67.6511 50.9064 83.4321C61.4036 65.3557 82.3095 62.602 82.3095 62.602Z" fill="#28A19C"/>
<path fill-rule="evenodd" clip-rule="evenodd" d="M78.6621 10.2842V59.9086C78.6621 59.9086 52.6138 68.8103 48.0709 82.1752V37.8269C48.0709 15.6179 78.6621 10.2842 78.6621 10.2842Z" fill="#FFBA00"/>
<path fill-rule="evenodd" clip-rule="evenodd" d="M50.9187 8.00059e-05L54.7272 6.96335L61.6904 10.7717L54.7272 14.58L50.9187 21.5433L47.1105 14.58L40.1472 10.7717L47.1105 6.96335L50.9187 8.00059e-05Z" fill="#EDB83E"/>
</svg>
