<svg width="58" height="58" viewBox="0 0 58 58" fill="none" xmlns="http://www.w3.org/2000/svg">
<g filter="url(#filter0_d_30_10)">
<path fill-rule="evenodd" clip-rule="evenodd" d="M29.0501 5.50904C16.9366 5.50904 7.08608 15.2231 7.08608 27.1671C7.08608 31.9037 8.63873 36.2937 11.2692 39.8654L8.52645 47.9071L16.9653 45.2425C20.4324 47.5032 24.5869 48.823 29.0501 48.823C41.1587 48.823 51.0121 39.1081 51.0121 27.1671C51.0121 15.2231 41.1587 5.50904 29.0501 5.50904H29.0501Z" fill="url(#paint0_linear_30_10)"/>
</g>
<path fill-rule="evenodd" clip-rule="evenodd" d="M42.392 33.5627C42.2217 33.2835 41.7721 33.1163 41.1009 32.7817C40.4265 32.448 37.1116 30.8289 36.4949 30.607C35.8781 30.3846 35.4254 30.2727 34.979 30.9408C34.5294 31.6096 33.2376 33.1163 32.8432 33.5627C32.4512 34.0099 32.0591 34.0642 31.3848 33.7299C30.7097 33.3962 28.5374 32.6876 25.9646 30.4126C23.9626 28.6377 22.6101 26.4507 22.2149 25.7818C21.8237 25.1136 22.176 24.7519 22.5097 24.4184C22.8137 24.1173 23.1848 23.6375 23.5215 23.2485C23.8591 22.8565 23.9712 22.5766 24.196 22.1302C24.4207 21.6836 24.3086 21.2949 24.1383 20.9604C23.9712 20.6266 22.6224 17.3359 22.0602 15.9957C21.5017 14.6596 20.9393 14.7095 20.5443 14.7095C20.1523 14.7095 19.425 14.8259 19.425 14.8259C19.425 14.8259 18.074 14.9931 17.4572 15.6622C16.8404 16.3302 15.0998 17.9496 15.0998 21.2372C15.0998 24.5273 17.5124 27.7083 17.8492 28.1516C18.1869 28.5988 22.5097 35.5709 29.3611 38.2479C36.2126 40.9242 36.2126 40.0314 37.4485 39.9186C38.6819 39.8098 41.4345 38.3023 41.9969 36.7407C42.5593 35.1789 42.5593 33.8394 42.392 33.5626L42.392 33.5627ZM28.5102 4.34474C15.7625 4.34474 5.39621 14.6317 5.39621 27.2797C5.39621 32.2956 7.03042 36.9444 9.79845 40.7267L6.91207 49.2427L15.7929 46.4208C19.4414 48.8148 23.8131 50.2126 28.5102 50.2126C41.2525 50.2126 51.6218 39.9249 51.6218 27.2797C51.6218 14.6317 41.2525 4.34475 28.5102 4.34475V4.34474ZM56 27.2797C56 42.3429 43.6923 54.5571 28.5102 54.5571C23.6887 54.5571 19.1589 53.326 15.2211 51.1629L0 56L4.96153 41.3654C2.45777 37.254 1.01819 32.4326 1.01819 27.2797C1.01819 12.2134 13.3257 0 28.5102 0C43.6923 0 56 12.2134 56 27.2797Z" fill="white"/>
<defs>
<filter id="filter0_d_30_10" x="1.08607" y="2.50903" width="55.926" height="55.314" filterUnits="userSpaceOnUse" color-interpolation-filters="sRGB">
<feFlood flood-opacity="0" result="BackgroundImageFix"/>
<feColorMatrix in="SourceAlpha" type="matrix" values="0 0 0 0 0 0 0 0 0 0 0 0 0 0 0 0 0 0 127 0" result="hardAlpha"/>
<feOffset dy="3"/>
<feGaussianBlur stdDeviation="3"/>
<feColorMatrix type="matrix" values="0 0 0 0 0 0 0 0 0 0 0 0 0 0 0 0 0 0 0.16 0"/>
<feBlend mode="normal" in2="BackgroundImageFix" result="effect1_dropShadow_30_10"/>
<feBlend mode="normal" in="SourceGraphic" in2="effect1_dropShadow_30_10" result="shape"/>
</filter>
<linearGradient id="paint0_linear_30_10" x1="7.0862" y1="5.51" x2="7.0862" y2="48.83" gradientUnits="userSpaceOnUse">
<stop stop-color="#4AC14B"/>
<stop offset="1" stop-color="#06853A"/>
</linearGradient>
</defs>
</svg>
